<svg width="1438" height="878" viewBox="0 0 1438 878" fill="none" xmlns="http://www.w3.org/2000/svg">
<line x1="0.5" y1="39.7778" x2="0.5" y2="878" stroke="#F5F5F5"/>
<line x1="97.6779" y1="39.7778" x2="97.6779" y2="878" stroke="#F5F5F5"/>
<line x1="121.672" y1="33.9797" x2="121.672" y2="872.202" stroke="#F5F5F5"/>
<line x1="218.85" y1="33.9797" x2="218.85" y2="872.202" stroke="#F5F5F5"/>
<line x1="244.044" y1="28.1819" x2="244.044" y2="866.404" stroke="#F5F5F5"/>
<line x1="341.222" y1="28.1819" x2="341.222" y2="866.404" stroke="#F5F5F5"/>
<line x1="366.416" y1="22.3838" x2="366.416" y2="860.606" stroke="#F5F5F5"/>
<line x1="463.594" y1="22.3838" x2="463.594" y2="860.606" stroke="#F5F5F5"/>
<line x1="487.589" y1="16.5859" x2="487.589" y2="854.808" stroke="#F5F5F5"/>
<line x1="584.766" y1="16.5859" x2="584.766" y2="854.808" stroke="#F5F5F5"/>
<line x1="609.96" y1="10.7878" x2="609.96" y2="849.01" stroke="#F5F5F5"/>
<line x1="707.138" y1="10.7878" x2="707.138" y2="849.01" stroke="#F5F5F5"/>
<line x1="732.333" y1="4.98999" x2="732.333" y2="843.212" stroke="#F5F5F5"/>
<line x1="829.51" y1="4.98999" x2="829.51" y2="843.212" stroke="#F5F5F5"/>
<line x1="853.505" y1="-0.808105" x2="853.505" y2="837.414" stroke="#F5F5F5"/>
<line x1="950.683" y1="-0.808105" x2="950.683" y2="837.414" stroke="#F5F5F5"/>
<line x1="975.877" y1="-6.60596" x2="975.877" y2="831.616" stroke="#F5F5F5"/>
<line x1="1073.05" y1="-6.60596" x2="1073.05" y2="831.616" stroke="#F5F5F5"/>
<line x1="1098.25" y1="-12.4041" x2="1098.25" y2="825.818" stroke="#F5F5F5"/>
<line x1="1195.43" y1="-12.4041" x2="1195.43" y2="825.818" stroke="#F5F5F5"/>
<line x1="1220.62" y1="-18.2019" x2="1220.62" y2="820.02" stroke="#F5F5F5"/>
<line x1="1317.8" y1="-18.2019" x2="1317.8" y2="820.02" stroke="#F5F5F5"/>
<line x1="1341.79" y1="-24" x2="1341.79" y2="814.222" stroke="#F5F5F5"/>
</svg>
