<svg width="78" height="78" viewBox="0 0 78 78" fill="none" xmlns="http://www.w3.org/2000/svg">
<path d="M0 0V26.7892H27.5088C27.1848 25.5423 27.0063 24.1935 27.0063 22.785C27.0063 16.4796 30.5602 11.3498 34.9287 11.3498C36.9051 11.3498 38.8042 12.4146 40.2763 14.3479L40.3066 14.3885L48.4286 25.407L56.5807 14.3479C58.0527 12.4146 59.9518 11.3498 61.9282 11.3498C66.2966 11.3498 69.8506 16.4796 69.8506 22.785C69.8506 24.1932 69.6722 25.5421 69.3482 26.7892H78V0H0Z" fill="#229A73"/>
<path d="M62.0547 26.7892C63.5286 26.6931 64.7079 24.9358 64.7079 22.785C64.7079 20.5728 63.4611 18.7732 61.9283 18.7732C61.2405 18.7732 60.5759 19.1453 60.0548 19.8216L54.9189 26.7889L62.0547 26.7892Z" fill="#229A73"/>
<path d="M56.1429 60.839H51V34.2136C49.489 34.2131 47.3681 34.2131 45.8571 34.2136V50.9411H40.7143V34.2151L0 34.2126V78H78V34.2128L56.1429 34.2153V60.839Z" fill="#229A73"/>
<path d="M41.9383 26.7893L36.8025 19.822C36.2814 19.1457 35.6167 18.7736 34.929 18.7736C33.3964 18.7736 32.1494 20.5732 32.1494 22.7854C32.1494 24.9362 33.3287 26.6935 34.8026 26.7896H41.9383V26.7893Z" fill="#229A73"/>
</svg>
