<svg width="84" height="84" viewBox="0 0 84 84" fill="none" xmlns="http://www.w3.org/2000/svg">
<path d="M81 42C81 49.7135 78.7127 57.2537 74.4273 63.6672C70.1419 70.0807 64.051 75.0795 56.9247 78.0313C49.7983 80.9831 41.9567 81.7554 34.3915 80.2506C26.8262 78.7458 19.8771 75.0314 14.4229 69.5771C8.9686 64.1229 5.25421 57.1738 3.74939 49.6085C2.24457 42.0433 3.0169 34.2017 5.96872 27.0753C8.92053 19.949 13.9193 13.8581 20.3328 9.57268C26.7463 5.28731 34.2865 3 42 3C52.3435 3 62.2633 7.10892 69.5772 14.4228C76.8911 21.7367 81 31.6565 81 42Z" stroke="#229A73" stroke-width="6" stroke-miterlimit="10" stroke-linecap="square"/>
<path d="M31.377 56.1885H45.7141C47.5956 56.1885 49.4001 55.4411 50.7305 54.1107C52.0609 52.7802 52.8084 50.9758 52.8084 49.0943C52.8133 48.1613 52.6332 47.2365 52.2784 46.3736C51.9236 45.5106 51.4012 44.7266 50.7415 44.0669C50.0817 43.4071 49.2977 42.8847 48.4348 42.53C47.5718 42.1752 46.6471 41.9951 45.7141 42H38.657C37.7239 42.0049 36.7992 41.8248 35.9363 41.47C35.0733 41.1152 34.2893 40.5928 33.6296 39.9331C32.9698 39.2733 32.4474 38.4893 32.0927 37.6264C31.7379 36.7634 31.5577 35.8387 31.5627 34.9057C31.5627 33.0242 32.3101 31.2197 33.6405 29.8893C34.971 28.5588 36.7754 27.8114 38.657 27.8114H52.8084" stroke="#229A73" stroke-width="6" stroke-miterlimit="10" stroke-linecap="square"/>
<path d="M42 20.7171V27.8114" stroke="#229A73" stroke-width="6" stroke-miterlimit="10" stroke-linecap="square"/>
<path d="M42 56.1886V63.2829" stroke="#229A73" stroke-width="6" stroke-miterlimit="10" stroke-linecap="square"/>
</svg>
