<svg width="68" height="67" viewBox="0 0 68 67" fill="none" xmlns="http://www.w3.org/2000/svg">
<path d="M33.9998 66.5961C52.1832 66.5961 67.298 51.514 67.298 33.2981C67.298 15.1147 52.1506 0 33.9672 0C15.7512 0 0.701904 15.1147 0.701904 33.2981C0.701904 51.514 15.7839 66.5961 33.9998 66.5961ZM23.782 30.1967C21.8232 30.1967 20.1909 28.4665 20.1909 25.9856C20.1909 23.5372 21.8232 21.807 23.782 21.807C25.7732 21.807 27.4382 23.5372 27.4382 25.9856C27.4382 28.4665 25.7732 30.1967 23.782 30.1967ZM43.4342 30.1967C41.4428 30.1967 39.8107 28.4665 39.8107 25.9856C39.8107 23.5372 41.4428 21.807 43.4342 21.807C45.393 21.807 47.0579 23.5372 47.0579 25.9856C47.0579 28.4665 45.393 30.1967 43.4342 30.1967ZM33.5428 49.4247C25.3815 49.4247 20.3215 43.6466 20.3215 41.492C20.3215 41.035 20.6153 40.8717 20.9744 41.1329C23.3248 43.0263 27.6015 45.1808 33.5428 45.1808C39.4842 45.1808 43.6302 43.1242 46.0785 41.1003C46.4376 40.8391 46.7641 41.035 46.7641 41.492C46.7641 43.6466 41.6714 49.4247 33.5428 49.4247Z" fill="#229A73"/>
</svg>
