<svg width="88" height="78" viewBox="0 0 88 78" fill="none" xmlns="http://www.w3.org/2000/svg">
<path d="M55.8092 19.2448C53.6465 18.7371 48.6685 18.6813 44.4772 19.9709C44.2087 19.7205 43.9396 19.4615 43.6742 19.2312C42.864 18.5306 42.0694 17.9382 41.2801 17.4917C40.515 17.0619 39.752 16.7659 38.9538 16.7064V16.7016C37.7582 16.5644 36.5976 16.5035 35.5304 16.5035C33.9057 16.5069 32.5197 16.6339 31.4925 16.8758H31.4967C31.3547 16.9064 31.199 16.9251 31.0299 16.9251C30.1423 16.9401 28.9137 16.3446 27.7991 15.4848C27.0477 14.9162 26.1165 15.2173 25.6155 16.1922L13.3823 40.012C12.9656 40.8225 12.9507 41.9209 13.3432 42.7569C13.6536 43.4136 13.9132 44.0953 14.0845 44.7774C14.3308 45.7404 14.6875 46.6152 15.0991 47.4666C15.5113 48.3142 15.9819 49.1367 16.4731 49.922L16.6656 50.1824C16.6656 50.1824 17.5464 51.2079 18.95 52.8392C18.5837 53.5806 18.3824 54.4605 18.3752 55.3878C18.3663 56.6097 18.694 57.7673 19.3006 58.6421C19.9166 59.5306 20.74 60.0196 21.6204 60.0196C22.2371 60.0196 22.8266 59.7691 23.3402 59.3105C22.9969 60.0414 22.8063 60.8927 22.7991 61.788C22.7895 63.0098 23.1185 64.1657 23.7243 65.0389C24.3391 65.929 25.1632 66.418 26.0441 66.418C26.7361 66.418 27.3911 66.0999 27.9437 65.5313C26.9382 67.3115 26.9927 69.9089 28.1485 71.5793C28.7635 72.466 29.5868 72.955 30.4665 72.955H30.4671C31.3205 72.955 32.1271 72.4898 32.7407 71.6419L33.3405 70.8008C33.0894 71.4507 32.9396 72.1714 32.9335 72.9315C32.9246 74.1548 33.2524 75.3107 33.8587 76.1855C34.4742 77.0723 35.2982 77.5613 36.1785 77.5613C37.0312 77.5613 37.8371 77.0978 38.4562 76.2448L38.8213 75.7218C39.004 75.9249 39.1707 76.1076 39.3067 76.2566C39.418 76.3751 39.5129 76.4768 39.5997 76.5649L39.7286 76.6935L39.9113 76.8527C40.5975 77.3839 41.2537 77.6142 41.7755 77.7765C42.0355 77.8527 42.2585 77.9052 42.4238 77.9372L42.6252 77.9746L42.6881 77.9831L42.712 77.9865L42.727 77.9899L42.7431 77.9916L42.7648 77.9933C42.7846 77.9933 42.7749 77.9967 42.8791 78L43.002 77.9933C44.145 77.8748 45.2271 77.3196 46.1153 76.362C46.4687 75.9795 46.7781 75.5175 47.055 75.0117C47.602 75.2622 48.1814 75.4109 48.7844 75.4109C51.2298 75.4095 53.2878 73.2076 54.0848 70.1448C54.1735 70.1363 54.2617 70.1312 54.349 70.0992C54.6594 70.1788 54.9741 70.2363 55.3 70.2363C57.7265 70.2329 59.7801 68.0738 60.5903 65.0512C60.5958 65.0444 60.6011 65.0413 60.6064 65.0359L60.7969 65.0614C63.9315 65.0614 66.4689 61.4754 66.4701 57.0521C66.472 55.8234 66.3515 54.4647 66.0202 53.0516C68.1715 50.3678 71.3242 46.2216 71.8942 43.971C72.1687 42.888 73.7117 40.2906 74.16 39.4053L62.022 15.7699C60.4739 17.0076 57.4697 19.6375 55.8092 19.2448ZM63.0649 57.0511C63.0632 58.8195 62.0499 60.2511 60.7972 60.2545C60.4868 60.2545 60.1969 60.1666 59.9267 60.0074C59.8997 59.9904 59.8715 59.987 59.8445 59.9752L57.7411 56.3622C57.209 55.4924 56.2771 55.3944 55.6604 56.1455C55.0432 56.8968 54.975 58.2136 55.5076 59.085L57.5421 62.5861C57.412 64.1786 56.4641 65.4257 55.3002 65.4274C54.7476 65.4257 54.2576 65.1483 53.8566 64.6829L51.8377 61.2067C51.3049 60.337 50.373 60.2406 49.7565 60.992C49.1391 61.7433 49.0714 63.0601 49.6035 63.9296L51.01 66.4039C51.0076 66.5578 50.9969 66.7119 51.016 66.866C51.0406 67.0606 51.0519 67.2363 51.0519 67.3989C51.0502 69.169 50.0363 70.5989 48.7844 70.6023C48.4571 70.6023 48.1558 70.4957 47.8777 70.3232L45.4172 66.6714C44.8233 65.8827 43.8897 65.9234 43.3311 66.7626C42.772 67.6003 42.8009 68.9203 43.394 69.707L44.5487 71.6193C44.433 71.9697 44.279 72.2862 44.0448 72.5432C43.7445 72.8681 43.3316 73.0914 42.8619 73.1659C42.7247 73.1373 42.5383 73.0931 42.3165 73.0188C42.0415 72.931 41.7514 72.7871 41.601 72.6752C41.549 72.6213 41.4159 72.4825 41.2236 72.269C41.1145 72.1505 40.9905 72.0154 40.8527 71.8596C41.1019 70.3807 40.8334 68.7594 40.0251 67.5918C39.4096 66.7034 38.5857 66.2144 37.7053 66.2144C37.2103 66.2144 36.7358 66.3869 36.2994 66.6866L36.2863 66.6714L36.3013 66.6476C36.9204 65.7914 37.2667 64.6474 37.2761 63.4224C37.2851 62.1988 36.9561 61.0429 36.3497 60.1698C35.7348 59.283 34.9105 58.7923 34.0306 58.7923C33.3426 58.7923 32.6907 59.1068 32.1405 59.6689C32.5857 58.8768 32.8442 57.9155 32.8519 56.8885C32.8615 55.6649 32.5326 54.5091 31.9265 53.6359C31.3112 52.7458 30.4872 52.2568 29.6069 52.2568C28.7542 52.2568 27.9481 52.7205 27.3345 53.5699L26.7875 54.3382C27.4622 52.6121 27.3065 50.402 26.2816 48.9231C25.6656 48.0347 24.8417 47.5457 23.9613 47.5457C23.1087 47.5457 22.3026 48.0092 21.6878 48.8588L21.3258 49.3716C21.0687 49.0719 20.8164 48.7792 20.5934 48.5203C19.7557 47.5488 19.1786 46.8754 18.9467 46.6046C18.5548 45.9734 18.1922 45.3388 17.9087 44.75C17.6044 44.1273 17.3887 43.5502 17.2915 43.1593C17.1489 42.5941 16.9787 42.0629 16.7936 41.5586L27.5478 20.6206C28.6111 21.2484 29.7741 21.7204 31.0297 21.7325C31.364 21.7325 31.7062 21.6985 32.053 21.6175H32.0573C32.7734 21.4449 34.0497 21.3093 35.5301 21.3129C36.5063 21.3095 37.5802 21.367 38.678 21.4923L38.7529 21.4991C39.0226 21.5092 39.4715 21.6447 40.0167 21.956L40.1401 22.0356C35.5462 24.9647 29.0359 30.6002 26.8964 31.6085C24.4532 32.7576 24.2489 37.3588 29.746 38.22C35.2441 39.0847 40.1305 34.1943 41.3518 33.3347C42.2285 32.7154 47.7985 33.4718 50.8837 33.9489C52.244 35.8459 53.4365 37.6058 54.306 38.9359L61.0819 50.6325L61.1118 50.6801C61.9801 52.0998 62.4512 53.252 62.7185 54.2404C62.983 55.2286 63.0632 56.0814 63.0649 57.0511Z" fill="#229A73"/>
<path d="M87.7665 32.5984L71.3925 0.713169C70.9963 -0.0602453 70.2328 -0.229392 69.6863 0.32901L62.4335 7.75471C61.8869 8.31311 61.7652 9.39279 62.1619 10.1645L78.5361 42.0497C78.9321 42.8214 79.6956 42.994 80.2421 42.4356L87.4961 35.0084C88.0416 34.4478 88.1638 33.3698 87.7665 32.5984ZM82.1951 35.4632C81.2854 36.3939 80.0115 36.1063 79.351 34.8218C78.6911 33.5375 78.8945 31.7403 79.8052 30.8079C80.7155 29.8755 81.9884 30.1631 82.6487 31.4457C83.3086 32.7318 83.1054 34.5308 82.1951 35.4632Z" fill="#229A73"/>
<path d="M25.5676 7.75447L18.3134 0.328766C17.7681 -0.229636 17.0041 -0.0604894 16.6074 0.712925L0.232682 32.5984C-0.164005 33.3701 -0.0405991 34.4481 0.50476 35.0082L7.75754 42.4353C8.3041 42.9937 9.0674 42.8212 9.46288 42.0495L25.8378 10.1643C26.2344 9.39254 26.1128 8.31287 25.5676 7.75447ZM20.7202 11.315C20.0604 12.5995 18.7869 12.8871 17.8767 11.9547C16.9657 11.0241 16.7628 9.2234 17.4229 7.94084C18.0826 6.65465 19.3562 6.36708 20.2664 7.29969C21.1779 8.23181 21.3793 10.0288 20.7202 11.315Z" fill="#229A73"/>
</svg>
