<svg width="1010" height="539" viewBox="0 0 1010 539" fill="none" xmlns="http://www.w3.org/2000/svg">
<path d="M186.313 4.98033C187.459 2.94096 190.395 2.94096 191.542 4.98033L195.691 12.3581C196.009 12.9239 196.502 13.3712 197.096 13.6329L204.523 16.9053C206.911 17.9571 206.911 21.3441 204.523 22.396L197.096 25.6683C196.502 25.9301 196.009 26.3774 195.691 26.9432L191.542 34.3209C190.395 36.3603 187.459 36.3603 186.313 34.3209L182.164 26.9432C181.846 26.3774 181.352 25.9301 180.758 25.6683L173.331 22.396C170.944 21.3442 170.944 17.9571 173.331 16.9053L180.758 13.6329C181.352 13.3712 181.846 12.9239 182.164 12.3581L186.313 4.98033Z" fill="#229A73"/>
<path d="M19.3383 233.049C20.4851 231.009 23.4212 231.009 24.5681 233.049L28.7169 240.426C29.0351 240.992 29.5282 241.44 30.1222 241.701L37.5491 244.974C39.9363 246.025 39.9363 249.413 37.5491 250.464L30.1222 253.737C29.5282 253.998 29.0351 254.446 28.7169 255.012L24.5681 262.389C23.4212 264.429 20.4851 264.429 19.3383 262.389L15.1894 255.012C14.8713 254.446 14.3782 253.998 13.7842 253.737L6.35722 250.464C3.97005 249.413 3.97004 246.025 6.35722 244.974L13.7842 241.701C14.3782 241.44 14.8713 240.992 15.1894 240.426L19.3383 233.049Z" fill="#1A1B20"/>
<path d="M653.95 5.3983C655.097 3.35893 658.033 3.35893 659.18 5.3983L668.587 22.1281C668.906 22.6939 669.399 23.1412 669.993 23.403L687.985 31.3305C690.372 32.3823 690.372 35.7693 687.985 36.8212L669.993 44.7487C669.399 45.0104 668.906 45.4578 668.587 46.0236L659.18 62.7534C658.033 64.7927 655.097 64.7927 653.95 62.7534L644.542 46.0236C644.224 45.4578 643.731 45.0104 643.137 44.7487L625.144 36.8212C622.757 35.7693 622.757 32.3823 625.144 31.3305L643.137 23.403C643.731 23.1412 644.224 22.6939 644.542 22.1281L653.95 5.3983Z" fill="#A9AEC9"/>
<path d="M961.675 389.65C962.822 387.611 965.758 387.611 966.905 389.65L978.852 410.895C979.17 411.46 979.663 411.908 980.257 412.169L1003.35 422.344C1005.74 423.396 1005.74 426.783 1003.35 427.835L980.257 438.01C979.663 438.272 979.17 438.719 978.852 439.285L966.905 460.529C965.758 462.569 962.822 462.569 961.675 460.529L949.729 439.285C949.411 438.719 948.917 438.272 948.323 438.01L925.231 427.835C922.844 426.783 922.844 423.396 925.231 422.344L948.323 412.169C948.917 411.908 949.411 411.46 949.729 410.895L961.675 389.65Z" fill="#229A73"/>
<path d="M483.123 496.046C484.27 494.007 487.206 494.007 488.353 496.046L494.134 506.326C494.452 506.892 494.945 507.34 495.539 507.601L506.245 512.318C508.632 513.37 508.632 516.757 506.245 517.809L495.539 522.526C494.945 522.788 494.452 523.235 494.134 523.801L488.353 534.081C487.206 536.12 484.27 536.12 483.123 534.081L477.342 523.801C477.024 523.235 476.531 522.788 475.937 522.526L465.231 517.809C462.844 516.757 462.844 513.37 465.231 512.318L475.937 507.601C476.531 507.34 477.024 506.892 477.342 506.326L483.123 496.046Z" fill="#1A1B20"/>
</svg>
