<svg width="334" height="680" viewBox="0 0 334 680" fill="none" xmlns="http://www.w3.org/2000/svg">
<path fill-rule="evenodd" clip-rule="evenodd" d="M8.08225 30.673C1.95935 42.6899 1.95935 58.4209 1.95935 89.8828V590.117C1.95935 621.579 1.95935 637.31 8.08225 649.327C13.4681 659.897 22.0621 668.491 32.6324 673.877C44.6493 680 60.3802 680 91.8422 680H241.952C273.414 680 289.145 680 301.161 673.877C311.732 668.491 320.326 659.897 325.712 649.327C331.834 637.31 331.834 621.579 331.834 590.117V89.8828C331.834 58.4209 331.834 42.6899 325.712 30.673C320.326 20.1027 311.732 11.5088 301.161 6.1229C289.145 0 273.414 0 241.952 0H91.8422C60.3802 0 44.6493 0 32.6324 6.1229C22.0621 11.5088 13.4681 20.1027 8.08225 30.673ZM7.1851 86.7473C7.1851 58.2121 7.1851 43.9445 12.7384 33.0455C17.6233 23.4584 25.4178 15.6639 35.0048 10.7791C45.9039 5.22574 60.1715 5.22574 88.7067 5.22574H132.603C133.23 5.22574 133.734 6.18865 134.083 6.85574C134.135 6.95575 134.184 7.04912 134.229 7.13159C134.673 7.93924 135.531 8.48675 136.517 8.48675H196.623C197.61 8.48675 198.468 7.93924 198.911 7.13159C198.956 7.04911 199.005 6.95574 199.058 6.85572C199.407 6.18864 199.91 5.22574 200.538 5.22574H245.087C273.622 5.22574 287.89 5.22574 298.789 10.7791C308.376 15.6639 316.171 23.4584 321.055 33.0455C326.609 43.9445 326.609 58.2121 326.609 86.7474V593.253C326.609 621.788 326.609 636.055 321.055 646.954C316.171 656.542 308.376 664.336 298.789 669.221C287.89 674.774 273.622 674.774 245.087 674.774H88.7067C60.1715 674.774 45.9039 674.774 35.0048 669.221C25.4178 664.336 17.6233 656.542 12.7384 646.954C7.1851 636.055 7.1851 621.788 7.1851 593.253V86.7473Z" fill="#229A73"/>
<path d="M333.794 216.868C333.794 216.147 333.209 215.562 332.488 215.562H331.835V296.561H332.488C333.209 296.561 333.794 295.976 333.794 295.254V216.868Z" fill="#229A73"/>
<path d="M-0.00012207 131.623C-0.00012207 131.082 0.438562 130.644 0.979705 130.644H1.95953V156.772H0.979704C0.438561 156.772 -0.00012207 156.334 -0.00012207 155.792V131.623Z" fill="#229A73"/>
<path d="M-0.000244141 180.615C-0.000244141 180.074 0.43844 179.635 0.979583 179.635H1.95941V231.892H0.979582C0.438439 231.892 -0.000244141 231.454 -0.000244141 230.913V180.615Z" fill="#229A73"/>
<path d="M-0.000244141 245.936C-0.000244141 245.395 0.43844 244.957 0.979583 244.957H1.95941V297.214H0.979582C0.438439 297.214 -0.000244141 296.775 -0.000244141 296.234V245.936Z" fill="#229A73"/>
<g clip-path="url(#clip0_36_534)">
<rect x="16.8972" y="15" width="300.162" height="649.95" rx="40" fill="#F9F9FA"/>
<rect x="99.8972" y="650.5" width="134" height="5" rx="2.5" fill="black"/>
<circle opacity="0.3" cx="169" cy="279" r="50" fill="#229A73"/>
<circle cx="169" cy="279" r="35.3659" fill="#229A73"/>
<circle cx="169" cy="279" r="33.8659" stroke="white" stroke-opacity="0.2" stroke-width="3"/>
<path d="M157.618 279.001L165.748 287.131L182.009 270.87" stroke="white" stroke-width="3" stroke-linecap="round" stroke-linejoin="round"/>
<path d="M130.938 355H128.825C128.7 354.392 128.481 353.858 128.168 353.398C127.862 352.938 127.487 352.551 127.043 352.239C126.606 351.92 126.12 351.682 125.586 351.523C125.052 351.364 124.495 351.284 123.916 351.284C122.859 351.284 121.901 351.551 121.043 352.085C120.191 352.619 119.512 353.406 119.006 354.446C118.506 355.486 118.256 356.761 118.256 358.273C118.256 359.784 118.506 361.06 119.006 362.099C119.512 363.139 120.191 363.926 121.043 364.46C121.901 364.994 122.859 365.261 123.916 365.261C124.495 365.261 125.052 365.182 125.586 365.023C126.12 364.864 126.606 364.628 127.043 364.315C127.487 363.997 127.862 363.608 128.168 363.148C128.481 362.682 128.7 362.148 128.825 361.545H130.938C130.779 362.437 130.489 363.236 130.069 363.94C129.649 364.645 129.126 365.244 128.501 365.739C127.876 366.227 127.174 366.599 126.396 366.855C125.623 367.111 124.796 367.239 123.916 367.239C122.427 367.239 121.103 366.875 119.944 366.148C118.785 365.42 117.873 364.386 117.208 363.045C116.543 361.705 116.211 360.114 116.211 358.273C116.211 356.432 116.543 354.841 117.208 353.5C117.873 352.159 118.785 351.125 119.944 350.398C121.103 349.67 122.427 349.307 123.916 349.307C124.796 349.307 125.623 349.435 126.396 349.69C127.174 349.946 127.876 350.321 128.501 350.815C129.126 351.304 129.649 351.901 130.069 352.605C130.489 353.304 130.779 354.102 130.938 355ZM139.159 367.273C137.977 367.273 136.94 366.991 136.048 366.429C135.162 365.866 134.469 365.08 133.969 364.068C133.475 363.057 133.227 361.875 133.227 360.523C133.227 359.159 133.475 357.969 133.969 356.952C134.469 355.935 135.162 355.145 136.048 354.582C136.94 354.02 137.977 353.739 139.159 353.739C140.341 353.739 141.375 354.02 142.262 354.582C143.154 355.145 143.847 355.935 144.341 356.952C144.841 357.969 145.091 359.159 145.091 360.523C145.091 361.875 144.841 363.057 144.341 364.068C143.847 365.08 143.154 365.866 142.262 366.429C141.375 366.991 140.341 367.273 139.159 367.273ZM139.159 365.466C140.057 365.466 140.796 365.236 141.375 364.776C141.955 364.315 142.384 363.71 142.662 362.96C142.94 362.21 143.08 361.398 143.08 360.523C143.08 359.648 142.94 358.832 142.662 358.077C142.384 357.321 141.955 356.71 141.375 356.244C140.796 355.778 140.057 355.545 139.159 355.545C138.262 355.545 137.523 355.778 136.943 356.244C136.364 356.71 135.935 357.321 135.656 358.077C135.378 358.832 135.239 359.648 135.239 360.523C135.239 361.398 135.378 362.21 135.656 362.96C135.935 363.71 136.364 364.315 136.943 364.776C137.523 365.236 138.262 365.466 139.159 365.466ZM149.933 359.125V367H147.921V353.909H149.865V355.955H150.035C150.342 355.29 150.808 354.756 151.433 354.352C152.058 353.943 152.865 353.739 153.853 353.739C154.74 353.739 155.515 353.92 156.18 354.284C156.845 354.642 157.362 355.188 157.731 355.92C158.1 356.648 158.285 357.568 158.285 358.682V367H156.274V358.818C156.274 357.79 156.007 356.989 155.473 356.415C154.938 355.835 154.205 355.545 153.274 355.545C152.632 355.545 152.058 355.685 151.552 355.963C151.052 356.241 150.657 356.648 150.367 357.182C150.078 357.716 149.933 358.364 149.933 359.125ZM167.005 372.182C166.033 372.182 165.198 372.057 164.499 371.807C163.8 371.562 163.218 371.239 162.752 370.835C162.291 370.438 161.925 370.011 161.652 369.557L163.255 368.432C163.436 368.67 163.666 368.943 163.945 369.25C164.223 369.562 164.604 369.832 165.087 370.06C165.576 370.293 166.215 370.409 167.005 370.409C168.061 370.409 168.934 370.153 169.621 369.642C170.309 369.131 170.652 368.33 170.652 367.239V364.58H170.482C170.334 364.818 170.124 365.114 169.851 365.466C169.584 365.812 169.198 366.122 168.692 366.395C168.192 366.662 167.516 366.795 166.664 366.795C165.607 366.795 164.658 366.545 163.817 366.045C162.982 365.545 162.32 364.818 161.831 363.864C161.348 362.909 161.107 361.75 161.107 360.386C161.107 359.045 161.343 357.878 161.814 356.884C162.286 355.884 162.942 355.111 163.783 354.565C164.624 354.014 165.595 353.739 166.698 353.739C167.55 353.739 168.226 353.881 168.726 354.165C169.232 354.443 169.618 354.761 169.885 355.119C170.158 355.472 170.368 355.761 170.516 355.989H170.72V353.909H172.664V367.375C172.664 368.5 172.408 369.415 171.897 370.119C171.391 370.83 170.709 371.349 169.851 371.679C168.999 372.014 168.05 372.182 167.005 372.182ZM166.936 364.989C167.743 364.989 168.425 364.804 168.982 364.435C169.539 364.065 169.962 363.534 170.252 362.841C170.541 362.148 170.686 361.318 170.686 360.352C170.686 359.409 170.544 358.577 170.26 357.855C169.976 357.134 169.556 356.568 168.999 356.159C168.442 355.75 167.755 355.545 166.936 355.545C166.084 355.545 165.374 355.761 164.806 356.193C164.243 356.625 163.82 357.205 163.536 357.932C163.257 358.659 163.118 359.466 163.118 360.352C163.118 361.261 163.26 362.065 163.544 362.764C163.834 363.457 164.26 364.003 164.823 364.401C165.391 364.793 166.095 364.989 166.936 364.989ZM176.105 367V353.909H178.049V355.886H178.185C178.424 355.239 178.855 354.713 179.48 354.31C180.105 353.906 180.81 353.705 181.594 353.705C181.742 353.705 181.926 353.707 182.148 353.713C182.37 353.719 182.537 353.727 182.651 353.739V355.784C182.583 355.767 182.426 355.741 182.182 355.707C181.944 355.668 181.691 355.648 181.424 355.648C180.787 355.648 180.219 355.781 179.719 356.048C179.225 356.31 178.833 356.673 178.543 357.139C178.259 357.599 178.117 358.125 178.117 358.716V367H176.105ZM188.647 367.307C187.818 367.307 187.065 367.151 186.389 366.838C185.713 366.52 185.176 366.062 184.778 365.466C184.38 364.864 184.181 364.136 184.181 363.284C184.181 362.534 184.329 361.926 184.625 361.46C184.92 360.989 185.315 360.619 185.809 360.352C186.304 360.085 186.849 359.886 187.446 359.756C188.048 359.619 188.653 359.511 189.261 359.432C190.056 359.33 190.701 359.253 191.196 359.202C191.696 359.145 192.059 359.051 192.287 358.92C192.52 358.79 192.636 358.562 192.636 358.239V358.17C192.636 357.33 192.406 356.676 191.946 356.21C191.491 355.744 190.801 355.511 189.875 355.511C188.914 355.511 188.162 355.722 187.616 356.142C187.071 356.562 186.687 357.011 186.466 357.489L184.556 356.807C184.897 356.011 185.352 355.392 185.92 354.949C186.494 354.5 187.119 354.187 187.795 354.011C188.477 353.83 189.147 353.739 189.806 353.739C190.227 353.739 190.71 353.79 191.255 353.892C191.806 353.989 192.338 354.19 192.849 354.497C193.366 354.804 193.795 355.267 194.136 355.886C194.477 356.506 194.647 357.335 194.647 358.375V367H192.636V365.227H192.534C192.397 365.511 192.17 365.815 191.852 366.139C191.534 366.463 191.11 366.739 190.582 366.966C190.054 367.193 189.409 367.307 188.647 367.307ZM188.954 365.5C189.75 365.5 190.42 365.344 190.966 365.031C191.517 364.719 191.931 364.315 192.21 363.821C192.494 363.327 192.636 362.807 192.636 362.261V360.42C192.551 360.523 192.363 360.616 192.074 360.702C191.789 360.781 191.46 360.852 191.085 360.915C190.716 360.972 190.355 361.023 190.003 361.068C189.656 361.108 189.375 361.142 189.159 361.17C188.636 361.239 188.147 361.349 187.693 361.503C187.244 361.651 186.88 361.875 186.602 362.176C186.329 362.472 186.193 362.875 186.193 363.386C186.193 364.085 186.451 364.614 186.968 364.972C187.491 365.324 188.153 365.5 188.954 365.5ZM203.772 353.909V355.614H196.988V353.909H203.772ZM198.965 350.773H200.976V363.25C200.976 363.818 201.059 364.244 201.223 364.528C201.394 364.807 201.61 364.994 201.871 365.091C202.138 365.182 202.419 365.227 202.715 365.227C202.937 365.227 203.118 365.216 203.26 365.193C203.402 365.165 203.516 365.142 203.601 365.125L204.01 366.932C203.874 366.983 203.684 367.034 203.439 367.085C203.195 367.142 202.885 367.17 202.51 367.17C201.942 367.17 201.385 367.048 200.84 366.804C200.3 366.56 199.851 366.188 199.493 365.688C199.141 365.188 198.965 364.557 198.965 363.795V350.773ZM215.596 356.841L213.789 357.352C213.675 357.051 213.508 356.759 213.286 356.474C213.07 356.185 212.775 355.946 212.4 355.759C212.025 355.571 211.545 355.477 210.959 355.477C210.158 355.477 209.491 355.662 208.956 356.031C208.428 356.395 208.164 356.858 208.164 357.42C208.164 357.92 208.346 358.315 208.709 358.605C209.073 358.895 209.641 359.136 210.414 359.33L212.357 359.807C213.527 360.091 214.4 360.526 214.974 361.111C215.547 361.69 215.834 362.437 215.834 363.352C215.834 364.102 215.618 364.773 215.187 365.364C214.76 365.955 214.164 366.42 213.397 366.761C212.63 367.102 211.738 367.273 210.721 367.273C209.385 367.273 208.28 366.983 207.405 366.403C206.53 365.824 205.976 364.977 205.743 363.864L207.652 363.386C207.834 364.091 208.178 364.619 208.684 364.972C209.195 365.324 209.863 365.5 210.687 365.5C211.624 365.5 212.368 365.301 212.92 364.903C213.476 364.5 213.755 364.017 213.755 363.455C213.755 363 213.596 362.619 213.277 362.312C212.959 362 212.471 361.767 211.812 361.614L209.63 361.102C208.431 360.818 207.55 360.378 206.988 359.781C206.431 359.179 206.152 358.426 206.152 357.523C206.152 356.784 206.36 356.131 206.775 355.562C207.195 354.994 207.766 354.548 208.488 354.224C209.215 353.901 210.039 353.739 210.959 353.739C212.255 353.739 213.272 354.023 214.01 354.591C214.755 355.159 215.283 355.909 215.596 356.841ZM221.281 349.545L221.111 362.091H219.133L218.963 349.545H221.281ZM220.122 367.136C219.702 367.136 219.341 366.986 219.04 366.685C218.738 366.384 218.588 366.023 218.588 365.602C218.588 365.182 218.738 364.821 219.04 364.52C219.341 364.219 219.702 364.068 220.122 364.068C220.542 364.068 220.903 364.219 221.204 364.52C221.506 364.821 221.656 365.182 221.656 365.602C221.656 365.881 221.585 366.136 221.443 366.369C221.307 366.602 221.122 366.79 220.889 366.932C220.662 367.068 220.406 367.136 220.122 367.136Z" fill="black"/>
<path d="M82.951 393.364H84.9453L87.9851 398.653H88.1101L91.1499 393.364H93.1442L88.9226 400.432V405H87.1726V400.432L82.951 393.364ZM96.9041 405.176C96.0859 405.176 95.3719 404.989 94.7621 404.614C94.1522 404.239 93.6787 403.714 93.3416 403.04C93.0045 402.366 92.8359 401.578 92.8359 400.676C92.8359 399.771 93.0045 398.979 93.3416 398.301C93.6787 397.623 94.1522 397.097 94.7621 396.722C95.3719 396.347 96.0859 396.159 96.9041 396.159C97.7223 396.159 98.4363 396.347 99.0462 396.722C99.656 397.097 100.129 397.623 100.467 398.301C100.804 398.979 100.972 399.771 100.972 400.676C100.972 401.578 100.804 402.366 100.467 403.04C100.129 403.714 99.656 404.239 99.0462 404.614C98.4363 404.989 97.7223 405.176 96.9041 405.176ZM96.9098 403.75C97.4401 403.75 97.8795 403.61 98.228 403.33C98.5765 403.049 98.834 402.676 99.0007 402.21C99.1712 401.744 99.2564 401.231 99.2564 400.67C99.2564 400.114 99.1712 399.602 99.0007 399.136C98.834 398.667 98.5765 398.29 98.228 398.006C97.8795 397.722 97.4401 397.58 96.9098 397.58C96.3757 397.58 95.9325 397.722 95.5803 398.006C95.2318 398.29 94.9723 398.667 94.8018 399.136C94.6352 399.602 94.5518 400.114 94.5518 400.67C94.5518 401.231 94.6352 401.744 94.8018 402.21C94.9723 402.676 95.2318 403.049 95.5803 403.33C95.9325 403.61 96.3757 403.75 96.9098 403.75ZM108.397 401.381V396.273H110.102V405H108.431V403.489H108.34C108.139 403.955 107.817 404.343 107.374 404.653C106.935 404.96 106.388 405.114 105.732 405.114C105.172 405.114 104.675 404.991 104.244 404.744C103.816 404.494 103.478 404.125 103.232 403.636C102.99 403.148 102.869 402.544 102.869 401.824V396.273H104.567V401.619C104.567 402.214 104.732 402.687 105.062 403.04C105.391 403.392 105.819 403.568 106.346 403.568C106.664 403.568 106.98 403.489 107.295 403.33C107.613 403.17 107.876 402.93 108.085 402.608C108.297 402.286 108.401 401.877 108.397 401.381ZM112.384 405V396.273H114.026V397.659H114.117C114.276 397.189 114.557 396.82 114.958 396.551C115.363 396.278 115.822 396.142 116.333 396.142C116.439 396.142 116.564 396.146 116.708 396.153C116.856 396.161 116.971 396.17 117.055 396.182V397.807C116.987 397.788 116.865 397.767 116.691 397.744C116.517 397.718 116.343 397.705 116.168 397.705C115.767 397.705 115.409 397.79 115.094 397.96C114.784 398.127 114.538 398.36 114.356 398.659C114.174 398.955 114.083 399.292 114.083 399.67V405H112.384ZM122.896 405V393.364H127.043C127.949 393.364 128.699 393.528 129.293 393.858C129.888 394.187 130.333 394.638 130.629 395.21C130.924 395.778 131.072 396.419 131.072 397.131C131.072 397.847 130.922 398.491 130.623 399.062C130.327 399.631 129.88 400.081 129.282 400.415C128.687 400.744 127.939 400.909 127.038 400.909H124.185V399.42H126.879C127.451 399.42 127.915 399.322 128.271 399.125C128.627 398.924 128.888 398.652 129.055 398.307C129.221 397.962 129.305 397.57 129.305 397.131C129.305 396.691 129.221 396.301 129.055 395.96C128.888 395.619 128.625 395.352 128.265 395.159C127.909 394.966 127.439 394.869 126.856 394.869H124.651V405H122.896ZM136.56 405.176C135.742 405.176 135.028 404.989 134.418 404.614C133.808 404.239 133.335 403.714 132.998 403.04C132.661 402.366 132.492 401.578 132.492 400.676C132.492 399.771 132.661 398.979 132.998 398.301C133.335 397.623 133.808 397.097 134.418 396.722C135.028 396.347 135.742 396.159 136.56 396.159C137.379 396.159 138.093 396.347 138.702 396.722C139.312 397.097 139.786 397.623 140.123 398.301C140.46 398.979 140.629 399.771 140.629 400.676C140.629 401.578 140.46 402.366 140.123 403.04C139.786 403.714 139.312 404.239 138.702 404.614C138.093 404.989 137.379 405.176 136.56 405.176ZM136.566 403.75C137.096 403.75 137.536 403.61 137.884 403.33C138.233 403.049 138.49 402.676 138.657 402.21C138.827 401.744 138.913 401.231 138.913 400.67C138.913 400.114 138.827 399.602 138.657 399.136C138.49 398.667 138.233 398.29 137.884 398.006C137.536 397.722 137.096 397.58 136.566 397.58C136.032 397.58 135.589 397.722 135.237 398.006C134.888 398.29 134.629 398.667 134.458 399.136C134.291 399.602 134.208 400.114 134.208 400.67C134.208 401.231 134.291 401.744 134.458 402.21C134.629 402.676 134.888 403.049 135.237 403.33C135.589 403.61 136.032 403.75 136.566 403.75ZM142.525 405V396.273H144.224V405H142.525ZM143.383 394.926C143.087 394.926 142.834 394.828 142.621 394.631C142.413 394.43 142.309 394.191 142.309 393.915C142.309 393.634 142.413 393.396 142.621 393.199C142.834 392.998 143.087 392.898 143.383 392.898C143.678 392.898 143.93 392.998 144.138 393.199C144.351 393.396 144.457 393.634 144.457 393.915C144.457 394.191 144.351 394.43 144.138 394.631C143.93 394.828 143.678 394.926 143.383 394.926ZM148.208 399.818V405H146.509V396.273H148.14V397.693H148.248C148.449 397.231 148.763 396.86 149.191 396.58C149.623 396.299 150.166 396.159 150.822 396.159C151.416 396.159 151.937 396.284 152.384 396.534C152.831 396.78 153.178 397.148 153.424 397.636C153.67 398.125 153.793 398.729 153.793 399.449V405H152.094V399.653C152.094 399.021 151.93 398.527 151.6 398.17C151.271 397.811 150.818 397.631 150.242 397.631C149.848 397.631 149.498 397.716 149.191 397.886C148.888 398.057 148.647 398.307 148.469 398.636C148.295 398.962 148.208 399.356 148.208 399.818ZM160.146 396.273V397.636H155.379V396.273H160.146ZM156.657 394.182H158.356V402.438C158.356 402.767 158.405 403.015 158.504 403.182C158.602 403.345 158.729 403.456 158.884 403.517C159.043 403.574 159.216 403.602 159.401 403.602C159.538 403.602 159.657 403.593 159.759 403.574C159.862 403.555 159.941 403.54 159.998 403.528L160.305 404.932C160.206 404.97 160.066 405.008 159.884 405.045C159.702 405.087 159.475 405.11 159.202 405.114C158.755 405.121 158.339 405.042 157.952 404.875C157.566 404.708 157.254 404.451 157.015 404.102C156.776 403.754 156.657 403.316 156.657 402.79V394.182ZM168.424 398.403L166.884 398.676C166.82 398.479 166.718 398.292 166.577 398.114C166.441 397.936 166.255 397.79 166.021 397.676C165.786 397.562 165.492 397.506 165.14 397.506C164.659 397.506 164.257 397.614 163.935 397.83C163.613 398.042 163.452 398.316 163.452 398.653C163.452 398.945 163.56 399.18 163.776 399.358C163.992 399.536 164.341 399.682 164.822 399.795L166.208 400.114C167.011 400.299 167.61 400.585 168.004 400.972C168.397 401.358 168.594 401.86 168.594 402.477C168.594 403 168.443 403.466 168.14 403.875C167.841 404.28 167.422 404.598 166.884 404.83C166.35 405.061 165.731 405.176 165.026 405.176C164.049 405.176 163.252 404.968 162.634 404.551C162.017 404.131 161.638 403.534 161.498 402.761L163.14 402.511C163.242 402.939 163.452 403.263 163.771 403.483C164.089 403.699 164.504 403.807 165.015 403.807C165.572 403.807 166.017 403.691 166.35 403.46C166.683 403.225 166.85 402.939 166.85 402.602C166.85 402.33 166.748 402.1 166.543 401.915C166.343 401.729 166.034 401.589 165.617 401.494L164.14 401.17C163.326 400.985 162.723 400.689 162.333 400.284C161.947 399.879 161.754 399.366 161.754 398.744C161.754 398.229 161.897 397.778 162.185 397.392C162.473 397.006 162.871 396.705 163.379 396.489C163.886 396.269 164.468 396.159 165.123 396.159C166.066 396.159 166.808 396.364 167.35 396.773C167.892 397.178 168.25 397.722 168.424 398.403ZM174.833 405V393.364H176.589V398.42H182.39V393.364H184.151V405H182.39V399.926H176.589V405H174.833ZM189.112 405.193C188.558 405.193 188.058 405.091 187.612 404.886C187.165 404.678 186.81 404.377 186.549 403.983C186.291 403.589 186.163 403.106 186.163 402.534C186.163 402.042 186.257 401.636 186.447 401.318C186.636 401 186.892 400.748 187.214 400.562C187.536 400.377 187.896 400.237 188.293 400.142C188.691 400.047 189.096 399.975 189.509 399.926C190.032 399.866 190.456 399.816 190.782 399.778C191.108 399.737 191.344 399.67 191.492 399.58C191.64 399.489 191.714 399.341 191.714 399.136V399.097C191.714 398.6 191.574 398.216 191.293 397.943C191.017 397.67 190.604 397.534 190.055 397.534C189.483 397.534 189.032 397.661 188.702 397.915C188.377 398.165 188.151 398.443 188.026 398.75L186.43 398.386C186.619 397.856 186.896 397.428 187.259 397.102C187.627 396.773 188.049 396.534 188.526 396.386C189.004 396.235 189.505 396.159 190.032 396.159C190.38 396.159 190.75 396.201 191.14 396.284C191.534 396.364 191.901 396.511 192.242 396.727C192.587 396.943 192.869 397.252 193.089 397.653C193.308 398.051 193.418 398.568 193.418 399.205V405H191.759V403.807H191.691C191.581 404.027 191.416 404.242 191.197 404.455C190.977 404.667 190.695 404.843 190.35 404.983C190.005 405.123 189.593 405.193 189.112 405.193ZM189.481 403.83C189.951 403.83 190.352 403.737 190.685 403.551C191.022 403.366 191.278 403.123 191.452 402.824C191.63 402.521 191.719 402.197 191.719 401.852V400.727C191.659 400.788 191.541 400.845 191.367 400.898C191.197 400.947 191.002 400.991 190.782 401.028C190.562 401.062 190.348 401.095 190.14 401.125C189.932 401.152 189.757 401.174 189.617 401.193C189.288 401.235 188.987 401.305 188.714 401.403C188.445 401.502 188.229 401.644 188.066 401.83C187.907 402.011 187.827 402.254 187.827 402.557C187.827 402.977 187.983 403.295 188.293 403.511C188.604 403.723 189 403.83 189.481 403.83ZM202.835 396.273L199.67 405H197.852L194.681 396.273H196.505L198.715 402.989H198.806L201.011 396.273H202.835ZM207.896 405.176C207.036 405.176 206.295 404.992 205.674 404.625C205.057 404.254 204.579 403.733 204.242 403.062C203.909 402.388 203.742 401.598 203.742 400.693C203.742 399.799 203.909 399.011 204.242 398.33C204.579 397.648 205.049 397.116 205.651 396.733C206.257 396.35 206.966 396.159 207.776 396.159C208.269 396.159 208.746 396.241 209.208 396.403C209.67 396.566 210.085 396.822 210.452 397.17C210.82 397.519 211.11 397.972 211.322 398.528C211.534 399.081 211.64 399.754 211.64 400.545V401.148H204.702V399.875H209.975C209.975 399.428 209.884 399.032 209.702 398.688C209.521 398.339 209.265 398.064 208.935 397.864C208.61 397.663 208.227 397.562 207.788 397.562C207.31 397.562 206.894 397.68 206.538 397.915C206.185 398.146 205.913 398.449 205.719 398.824C205.53 399.195 205.435 399.598 205.435 400.034V401.028C205.435 401.612 205.538 402.108 205.742 402.517C205.951 402.926 206.24 403.239 206.612 403.455C206.983 403.667 207.416 403.773 207.913 403.773C208.235 403.773 208.528 403.727 208.793 403.636C209.058 403.542 209.288 403.402 209.481 403.216C209.674 403.03 209.822 402.801 209.924 402.528L211.532 402.818C211.403 403.292 211.172 403.706 210.839 404.062C210.509 404.415 210.094 404.689 209.594 404.886C209.098 405.08 208.532 405.176 207.896 405.176ZM217.896 405V393.364H222.157C222.983 393.364 223.666 393.5 224.208 393.773C224.75 394.042 225.155 394.407 225.424 394.869C225.693 395.328 225.827 395.845 225.827 396.42C225.827 396.905 225.738 397.314 225.56 397.648C225.382 397.977 225.144 398.242 224.844 398.443C224.549 398.64 224.223 398.784 223.867 398.875V398.989C224.254 399.008 224.63 399.133 224.998 399.364C225.369 399.591 225.676 399.915 225.918 400.335C226.161 400.756 226.282 401.267 226.282 401.869C226.282 402.464 226.142 402.998 225.862 403.472C225.585 403.941 225.157 404.314 224.577 404.591C223.998 404.864 223.257 405 222.356 405H217.896ZM219.651 403.494H222.185C223.026 403.494 223.629 403.331 223.992 403.006C224.356 402.68 224.538 402.273 224.538 401.784C224.538 401.417 224.445 401.08 224.259 400.773C224.074 400.466 223.808 400.222 223.464 400.04C223.123 399.858 222.718 399.767 222.248 399.767H219.651V403.494ZM219.651 398.398H222.004C222.397 398.398 222.752 398.322 223.066 398.17C223.384 398.019 223.636 397.807 223.822 397.534C224.011 397.258 224.106 396.932 224.106 396.557C224.106 396.076 223.937 395.672 223.6 395.347C223.263 395.021 222.746 394.858 222.049 394.858H219.651V398.398ZM231.989 405.176C231.129 405.176 230.389 404.992 229.768 404.625C229.15 404.254 228.673 403.733 228.336 403.062C228.003 402.388 227.836 401.598 227.836 400.693C227.836 399.799 228.003 399.011 228.336 398.33C228.673 397.648 229.143 397.116 229.745 396.733C230.351 396.35 231.059 396.159 231.87 396.159C232.362 396.159 232.84 396.241 233.302 396.403C233.764 396.566 234.179 396.822 234.546 397.17C234.914 397.519 235.203 397.972 235.415 398.528C235.628 399.081 235.734 399.754 235.734 400.545V401.148H228.796V399.875H234.069C234.069 399.428 233.978 399.032 233.796 398.688C233.614 398.339 233.359 398.064 233.029 397.864C232.703 397.663 232.321 397.562 231.881 397.562C231.404 397.562 230.987 397.68 230.631 397.915C230.279 398.146 230.006 398.449 229.813 398.824C229.624 399.195 229.529 399.598 229.529 400.034V401.028C229.529 401.612 229.631 402.108 229.836 402.517C230.044 402.926 230.334 403.239 230.705 403.455C231.076 403.667 231.51 403.773 232.006 403.773C232.328 403.773 232.622 403.727 232.887 403.636C233.152 403.542 233.381 403.402 233.575 403.216C233.768 403.03 233.915 402.801 234.018 402.528L235.626 402.818C235.497 403.292 235.266 403.706 234.933 404.062C234.603 404.415 234.188 404.689 233.688 404.886C233.192 405.08 232.626 405.176 231.989 405.176ZM241.38 405.176C240.52 405.176 239.78 404.992 239.158 404.625C238.541 404.254 238.064 403.733 237.727 403.062C237.393 402.388 237.227 401.598 237.227 400.693C237.227 399.799 237.393 399.011 237.727 398.33C238.064 397.648 238.533 397.116 239.136 396.733C239.742 396.35 240.45 396.159 241.261 396.159C241.753 396.159 242.23 396.241 242.692 396.403C243.155 396.566 243.569 396.822 243.937 397.17C244.304 397.519 244.594 397.972 244.806 398.528C245.018 399.081 245.124 399.754 245.124 400.545V401.148H238.187V399.875H243.46C243.46 399.428 243.369 399.032 243.187 398.688C243.005 398.339 242.749 398.064 242.42 397.864C242.094 397.663 241.711 397.562 241.272 397.562C240.795 397.562 240.378 397.68 240.022 397.915C239.67 398.146 239.397 398.449 239.204 398.824C239.014 399.195 238.92 399.598 238.92 400.034V401.028C238.92 401.612 239.022 402.108 239.227 402.517C239.435 402.926 239.725 403.239 240.096 403.455C240.467 403.667 240.901 403.773 241.397 403.773C241.719 403.773 242.013 403.727 242.278 403.636C242.543 403.542 242.772 403.402 242.965 403.216C243.158 403.03 243.306 402.801 243.408 402.528L245.016 402.818C244.888 403.292 244.656 403.706 244.323 404.062C243.994 404.415 243.579 404.689 243.079 404.886C242.583 405.08 242.016 405.176 241.38 405.176ZM248.708 399.818V405H247.009V396.273H248.64V397.693H248.748C248.949 397.231 249.263 396.86 249.691 396.58C250.123 396.299 250.666 396.159 251.322 396.159C251.916 396.159 252.437 396.284 252.884 396.534C253.331 396.78 253.678 397.148 253.924 397.636C254.17 398.125 254.293 398.729 254.293 399.449V405H252.594V399.653C252.594 399.021 252.43 398.527 252.1 398.17C251.771 397.811 251.318 397.631 250.742 397.631C250.348 397.631 249.998 397.716 249.691 397.886C249.388 398.057 249.147 398.307 248.969 398.636C248.795 398.962 248.708 399.356 248.708 399.818ZM55.7081 429V417.364H59.8558C60.7573 417.364 61.5054 417.519 62.1001 417.83C62.6986 418.14 63.1456 418.57 63.4411 419.119C63.7365 419.665 63.8842 420.295 63.8842 421.011C63.8842 421.723 63.7346 422.35 63.4354 422.892C63.1399 423.43 62.6929 423.848 62.0945 424.148C61.4998 424.447 60.7517 424.597 59.8501 424.597H56.7081V423.085H59.6911C60.2592 423.085 60.7214 423.004 61.0774 422.841C61.4373 422.678 61.7005 422.441 61.8672 422.131C62.0339 421.82 62.1172 421.447 62.1172 421.011C62.1172 420.572 62.032 420.191 61.8615 419.869C61.6948 419.547 61.4316 419.301 61.0717 419.131C60.7157 418.956 60.2479 418.869 59.6683 418.869H57.4638V429H55.7081ZM61.4524 423.75L64.3274 429H62.3274L59.5092 423.75H61.4524ZM69.5362 429.176C68.6764 429.176 67.9358 428.992 67.3146 428.625C66.6972 428.254 66.2199 427.733 65.8828 427.062C65.5495 426.388 65.3828 425.598 65.3828 424.693C65.3828 423.799 65.5495 423.011 65.8828 422.33C66.2199 421.648 66.6896 421.116 67.2919 420.733C67.898 420.35 68.6063 420.159 69.4169 420.159C69.9093 420.159 70.3866 420.241 70.8487 420.403C71.3108 420.566 71.7256 420.822 72.093 421.17C72.4605 421.519 72.7502 421.972 72.9624 422.528C73.1745 423.081 73.2805 423.754 73.2805 424.545V425.148H66.343V423.875H71.6158C71.6158 423.428 71.5249 423.032 71.343 422.688C71.1612 422.339 70.9055 422.064 70.576 421.864C70.2502 421.663 69.8677 421.562 69.4283 421.562C68.951 421.562 68.5343 421.68 68.1783 421.915C67.826 422.146 67.5533 422.449 67.3601 422.824C67.1707 423.195 67.076 423.598 67.076 424.034V425.028C67.076 425.612 67.1783 426.108 67.3828 426.517C67.5911 426.926 67.8809 427.239 68.2521 427.455C68.6233 427.667 69.0571 427.773 69.5533 427.773C69.8752 427.773 70.1688 427.727 70.4339 427.636C70.6991 427.542 70.9283 427.402 71.1214 427.216C71.3146 427.03 71.4624 426.801 71.5646 426.528L73.1726 426.818C73.0438 427.292 72.8127 427.706 72.4794 428.062C72.1499 428.415 71.7351 428.689 71.2351 428.886C70.7389 429.08 70.1726 429.176 69.5362 429.176ZM78.4325 429.17C77.728 429.17 77.0992 428.991 76.5462 428.631C75.9969 428.267 75.5651 427.75 75.2507 427.08C74.9401 426.405 74.7848 425.597 74.7848 424.653C74.7848 423.71 74.942 422.903 75.2564 422.233C75.5746 421.562 76.0102 421.049 76.5632 420.693C77.1162 420.337 77.7431 420.159 78.4439 420.159C78.9856 420.159 79.4212 420.25 79.7507 420.432C80.084 420.61 80.3416 420.818 80.5234 421.057C80.709 421.295 80.853 421.506 80.9553 421.688H81.0575V417.364H82.7564V429H81.0973V427.642H80.9553C80.853 427.828 80.7053 428.04 80.5121 428.278C80.3227 428.517 80.0613 428.725 79.728 428.903C79.3946 429.081 78.9628 429.17 78.4325 429.17ZM78.8075 427.722C79.2962 427.722 79.709 427.593 80.0462 427.335C80.3871 427.074 80.6446 426.712 80.8189 426.25C80.9969 425.788 81.0859 425.25 81.0859 424.636C81.0859 424.03 80.9988 423.5 80.8246 423.045C80.6503 422.591 80.3946 422.237 80.0575 421.983C79.7204 421.729 79.3037 421.602 78.8075 421.602C78.2962 421.602 77.87 421.735 77.5291 422C77.1882 422.265 76.9306 422.627 76.7564 423.085C76.5859 423.544 76.5007 424.061 76.5007 424.636C76.5007 425.22 76.5878 425.744 76.7621 426.21C76.9363 426.676 77.1939 427.045 77.5348 427.318C77.8795 427.587 78.3037 427.722 78.8075 427.722ZM88.9425 429.176C88.0826 429.176 87.3421 428.992 86.7209 428.625C86.1035 428.254 85.6262 427.733 85.2891 427.062C84.9557 426.388 84.7891 425.598 84.7891 424.693C84.7891 423.799 84.9557 423.011 85.2891 422.33C85.6262 421.648 86.0959 421.116 86.6982 420.733C87.3042 420.35 88.0125 420.159 88.8232 420.159C89.3156 420.159 89.7929 420.241 90.255 420.403C90.7171 420.566 91.1319 420.822 91.4993 421.17C91.8667 421.519 92.1565 421.972 92.3686 422.528C92.5807 423.081 92.6868 423.754 92.6868 424.545V425.148H85.7493V423.875H91.022C91.022 423.428 90.9311 423.032 90.7493 422.688C90.5675 422.339 90.3118 422.064 89.9822 421.864C89.6565 421.663 89.2739 421.562 88.8345 421.562C88.3572 421.562 87.9406 421.68 87.5845 421.915C87.2322 422.146 86.9595 422.449 86.7663 422.824C86.5769 423.195 86.4822 423.598 86.4822 424.034V425.028C86.4822 425.612 86.5845 426.108 86.7891 426.517C86.9974 426.926 87.2872 427.239 87.6584 427.455C88.0296 427.667 88.4633 427.773 88.9595 427.773C89.2815 427.773 89.575 427.727 89.8402 427.636C90.1054 427.542 90.3345 427.402 90.5277 427.216C90.7209 427.03 90.8686 426.801 90.9709 426.528L92.5788 426.818C92.45 427.292 92.219 427.706 91.8857 428.062C91.5561 428.415 91.1413 428.689 90.6413 428.886C90.1451 429.08 89.5788 429.176 88.9425 429.176ZM98.3331 429.176C97.4732 429.176 96.7327 428.992 96.1115 428.625C95.4941 428.254 95.0168 427.733 94.6797 427.062C94.3464 426.388 94.1797 425.598 94.1797 424.693C94.1797 423.799 94.3464 423.011 94.6797 422.33C95.0168 421.648 95.4865 421.116 96.0888 420.733C96.6948 420.35 97.4032 420.159 98.2138 420.159C98.7062 420.159 99.1835 420.241 99.6456 420.403C100.108 420.566 100.522 420.822 100.89 421.17C101.257 421.519 101.547 421.972 101.759 422.528C101.971 423.081 102.077 423.754 102.077 424.545V425.148H95.1399V423.875H100.413C100.413 423.428 100.322 423.032 100.14 422.688C99.9581 422.339 99.7024 422.064 99.3729 421.864C99.0471 421.663 98.6645 421.562 98.2251 421.562C97.7479 421.562 97.3312 421.68 96.9751 421.915C96.6229 422.146 96.3501 422.449 96.157 422.824C95.9676 423.195 95.8729 423.598 95.8729 424.034V425.028C95.8729 425.612 95.9751 426.108 96.1797 426.517C96.388 426.926 96.6778 427.239 97.049 427.455C97.4202 427.667 97.8539 427.773 98.3501 427.773C98.6721 427.773 98.9657 427.727 99.2308 427.636C99.496 427.542 99.7251 427.402 99.9183 427.216C100.112 427.03 100.259 426.801 100.362 426.528L101.969 426.818C101.841 427.292 101.61 427.706 101.276 428.062C100.947 428.415 100.532 428.689 100.032 428.886C99.5357 429.08 98.9695 429.176 98.3331 429.176ZM103.962 429V420.273H105.593V421.693H105.701C105.883 421.212 106.18 420.837 106.593 420.568C107.006 420.295 107.5 420.159 108.076 420.159C108.659 420.159 109.148 420.295 109.542 420.568C109.94 420.841 110.233 421.216 110.423 421.693H110.513C110.722 421.227 111.053 420.856 111.508 420.58C111.962 420.299 112.504 420.159 113.133 420.159C113.924 420.159 114.57 420.407 115.07 420.903C115.574 421.4 115.826 422.148 115.826 423.148V429H114.127V423.307C114.127 422.716 113.966 422.288 113.644 422.023C113.322 421.758 112.938 421.625 112.491 421.625C111.938 421.625 111.508 421.795 111.201 422.136C110.894 422.473 110.741 422.907 110.741 423.438V429H109.048V423.199C109.048 422.725 108.9 422.345 108.604 422.057C108.309 421.769 107.924 421.625 107.451 421.625C107.129 421.625 106.832 421.71 106.559 421.881C106.29 422.047 106.072 422.28 105.906 422.58C105.743 422.879 105.661 423.225 105.661 423.619V429H103.962ZM121.864 429.176C121.004 429.176 120.264 428.992 119.643 428.625C119.025 428.254 118.548 427.733 118.211 427.062C117.878 426.388 117.711 425.598 117.711 424.693C117.711 423.799 117.878 423.011 118.211 422.33C118.548 421.648 119.018 421.116 119.62 420.733C120.226 420.35 120.934 420.159 121.745 420.159C122.237 420.159 122.715 420.241 123.177 420.403C123.639 420.566 124.054 420.822 124.421 421.17C124.789 421.519 125.078 421.972 125.29 422.528C125.503 423.081 125.609 423.754 125.609 424.545V425.148H118.671V423.875H123.944C123.944 423.428 123.853 423.032 123.671 422.688C123.489 422.339 123.234 422.064 122.904 421.864C122.578 421.663 122.196 421.562 121.756 421.562C121.279 421.562 120.862 421.68 120.506 421.915C120.154 422.146 119.881 422.449 119.688 422.824C119.499 423.195 119.404 423.598 119.404 424.034V425.028C119.404 425.612 119.506 426.108 119.711 426.517C119.919 426.926 120.209 427.239 120.58 427.455C120.951 427.667 121.385 427.773 121.881 427.773C122.203 427.773 122.497 427.727 122.762 427.636C123.027 427.542 123.256 427.402 123.45 427.216C123.643 427.03 123.79 426.801 123.893 426.528L125.501 426.818C125.372 427.292 125.141 427.706 124.808 428.062C124.478 428.415 124.063 428.689 123.563 428.886C123.067 429.08 122.501 429.176 121.864 429.176ZM130.761 429.17C130.056 429.17 129.427 428.991 128.874 428.631C128.325 428.267 127.893 427.75 127.579 427.08C127.268 426.405 127.113 425.597 127.113 424.653C127.113 423.71 127.27 422.903 127.585 422.233C127.903 421.562 128.338 421.049 128.891 420.693C129.444 420.337 130.071 420.159 130.772 420.159C131.314 420.159 131.749 420.25 132.079 420.432C132.412 420.61 132.67 420.818 132.852 421.057C133.037 421.295 133.181 421.506 133.283 421.688H133.386V417.364H135.085V429H133.425V427.642H133.283C133.181 427.828 133.033 428.04 132.84 428.278C132.651 428.517 132.389 428.725 132.056 428.903C131.723 429.081 131.291 429.17 130.761 429.17ZM131.136 427.722C131.624 427.722 132.037 427.593 132.374 427.335C132.715 427.074 132.973 426.712 133.147 426.25C133.325 425.788 133.414 425.25 133.414 424.636C133.414 424.03 133.327 423.5 133.153 423.045C132.978 422.591 132.723 422.237 132.386 421.983C132.049 421.729 131.632 421.602 131.136 421.602C130.624 421.602 130.198 421.735 129.857 422C129.516 422.265 129.259 422.627 129.085 423.085C128.914 423.544 128.829 424.061 128.829 424.636C128.829 425.22 128.916 425.744 129.09 426.21C129.264 426.676 129.522 427.045 129.863 427.318C130.208 427.587 130.632 427.722 131.136 427.722ZM141.744 429V420.273H143.442V429H141.744ZM142.602 418.926C142.306 418.926 142.052 418.828 141.84 418.631C141.632 418.43 141.528 418.191 141.528 417.915C141.528 417.634 141.632 417.396 141.84 417.199C142.052 416.998 142.306 416.898 142.602 416.898C142.897 416.898 143.149 416.998 143.357 417.199C143.569 417.396 143.675 417.634 143.675 417.915C143.675 418.191 143.569 418.43 143.357 418.631C143.149 418.828 142.897 418.926 142.602 418.926ZM147.427 423.818V429H145.728V420.273H147.359V421.693H147.467C147.667 421.231 147.982 420.86 148.41 420.58C148.842 420.299 149.385 420.159 150.04 420.159C150.635 420.159 151.156 420.284 151.603 420.534C152.05 420.78 152.397 421.148 152.643 421.636C152.889 422.125 153.012 422.729 153.012 423.449V429H151.313V423.653C151.313 423.021 151.148 422.527 150.819 422.17C150.489 421.811 150.037 421.631 149.461 421.631C149.067 421.631 148.717 421.716 148.41 421.886C148.107 422.057 147.866 422.307 147.688 422.636C147.514 422.962 147.427 423.356 147.427 423.818ZM164.184 417.364H165.934V425.614C165.934 426.36 165.786 426.998 165.491 427.528C165.199 428.059 164.788 428.464 164.258 428.744C163.728 429.021 163.106 429.159 162.394 429.159C161.739 429.159 161.15 429.04 160.627 428.801C160.108 428.562 159.697 428.216 159.394 427.761C159.095 427.303 158.945 426.746 158.945 426.091H160.69C160.69 426.413 160.763 426.691 160.911 426.926C161.063 427.161 161.269 427.345 161.531 427.477C161.796 427.606 162.099 427.67 162.44 427.67C162.811 427.67 163.125 427.593 163.383 427.438C163.644 427.278 163.843 427.045 163.979 426.739C164.116 426.432 164.184 426.057 164.184 425.614V417.364ZM173.881 425.381V420.273H175.586V429H173.915V427.489H173.825C173.624 427.955 173.302 428.343 172.859 428.653C172.419 428.96 171.872 429.114 171.217 429.114C170.656 429.114 170.16 428.991 169.728 428.744C169.3 428.494 168.963 428.125 168.717 427.636C168.474 427.148 168.353 426.544 168.353 425.824V420.273H170.052V425.619C170.052 426.214 170.217 426.687 170.546 427.04C170.876 427.392 171.304 427.568 171.83 427.568C172.148 427.568 172.465 427.489 172.779 427.33C173.097 427.17 173.361 426.93 173.569 426.608C173.781 426.286 173.885 425.877 173.881 425.381ZM184.408 422.403L182.869 422.676C182.804 422.479 182.702 422.292 182.562 422.114C182.425 421.936 182.24 421.79 182.005 421.676C181.77 421.562 181.477 421.506 181.124 421.506C180.643 421.506 180.242 421.614 179.92 421.83C179.598 422.042 179.437 422.316 179.437 422.653C179.437 422.945 179.545 423.18 179.761 423.358C179.977 423.536 180.325 423.682 180.806 423.795L182.192 424.114C182.996 424.299 183.594 424.585 183.988 424.972C184.382 425.358 184.579 425.86 184.579 426.477C184.579 427 184.427 427.466 184.124 427.875C183.825 428.28 183.406 428.598 182.869 428.83C182.335 429.061 181.715 429.176 181.011 429.176C180.033 429.176 179.236 428.968 178.619 428.551C178.001 428.131 177.622 427.534 177.482 426.761L179.124 426.511C179.227 426.939 179.437 427.263 179.755 427.483C180.073 427.699 180.488 427.807 180.999 427.807C181.556 427.807 182.001 427.691 182.335 427.46C182.668 427.225 182.835 426.939 182.835 426.602C182.835 426.33 182.732 426.1 182.528 425.915C182.327 425.729 182.018 425.589 181.602 425.494L180.124 425.17C179.31 424.985 178.708 424.689 178.317 424.284C177.931 423.879 177.738 423.366 177.738 422.744C177.738 422.229 177.882 421.778 178.17 421.392C178.458 421.006 178.855 420.705 179.363 420.489C179.871 420.269 180.452 420.159 181.107 420.159C182.05 420.159 182.793 420.364 183.335 420.773C183.876 421.178 184.234 421.722 184.408 422.403ZM190.521 420.273V421.636H185.754V420.273H190.521ZM187.032 418.182H188.731V426.438C188.731 426.767 188.78 427.015 188.879 427.182C188.977 427.345 189.104 427.456 189.259 427.517C189.418 427.574 189.591 427.602 189.776 427.602C189.913 427.602 190.032 427.593 190.134 427.574C190.237 427.555 190.316 427.54 190.373 427.528L190.68 428.932C190.581 428.97 190.441 429.008 190.259 429.045C190.077 429.087 189.85 429.11 189.577 429.114C189.13 429.121 188.714 429.042 188.327 428.875C187.941 428.708 187.629 428.451 187.39 428.102C187.151 427.754 187.032 427.316 187.032 426.79V418.182ZM201.026 417.364V429H199.265V419.125H199.197L196.413 420.943V419.261L199.316 417.364H201.026ZM208.225 429.193C207.327 429.189 206.56 428.953 205.924 428.483C205.288 428.013 204.801 427.33 204.464 426.432C204.127 425.534 203.958 424.453 203.958 423.188C203.958 421.926 204.127 420.848 204.464 419.955C204.805 419.061 205.293 418.379 205.93 417.909C206.57 417.439 207.335 417.205 208.225 417.205C209.115 417.205 209.879 417.441 210.515 417.915C211.151 418.384 211.638 419.066 211.975 419.96C212.316 420.85 212.487 421.926 212.487 423.188C212.487 424.456 212.318 425.54 211.981 426.438C211.644 427.331 211.157 428.015 210.521 428.489C209.884 428.958 209.119 429.193 208.225 429.193ZM208.225 427.676C209.013 427.676 209.629 427.292 210.072 426.523C210.519 425.754 210.742 424.642 210.742 423.188C210.742 422.222 210.64 421.405 210.435 420.739C210.235 420.068 209.945 419.561 209.566 419.216C209.191 418.867 208.744 418.693 208.225 418.693C207.441 418.693 206.826 419.08 206.379 419.852C205.932 420.625 205.706 421.737 205.702 423.188C205.702 424.157 205.803 424.977 206.004 425.648C206.208 426.314 206.498 426.82 206.873 427.165C207.248 427.506 207.699 427.676 208.225 427.676ZM218.896 417.364H221.026L224.731 426.409H224.867L228.572 417.364H230.702V429H229.032V420.58H228.924L225.492 428.983H224.106L220.674 420.574H220.566V429H218.896V417.364ZM233.119 429V420.273H234.817V429H233.119ZM233.977 418.926C233.681 418.926 233.427 418.828 233.215 418.631C233.007 418.43 232.903 418.191 232.903 417.915C232.903 417.634 233.007 417.396 233.215 417.199C233.427 416.998 233.681 416.898 233.977 416.898C234.272 416.898 234.524 416.998 234.732 417.199C234.944 417.396 235.05 417.634 235.05 417.915C235.05 418.191 234.944 418.43 234.732 418.631C234.524 418.828 234.272 418.926 233.977 418.926ZM238.802 423.818V429H237.103V420.273H238.734V421.693H238.842C239.042 421.231 239.357 420.86 239.785 420.58C240.217 420.299 240.76 420.159 241.415 420.159C242.01 420.159 242.531 420.284 242.978 420.534C243.425 420.78 243.772 421.148 244.018 421.636C244.264 422.125 244.387 422.729 244.387 423.449V429H242.688V423.653C242.688 423.021 242.523 422.527 242.194 422.17C241.864 421.811 241.412 421.631 240.836 421.631C240.442 421.631 240.092 421.716 239.785 421.886C239.482 422.057 239.241 422.307 239.063 422.636C238.889 422.962 238.802 423.356 238.802 423.818ZM252.194 425.381V420.273H253.898V429H252.228V427.489H252.137C251.936 427.955 251.614 428.343 251.171 428.653C250.732 428.96 250.184 429.114 249.529 429.114C248.969 429.114 248.472 428.991 248.04 428.744C247.612 428.494 247.275 428.125 247.029 427.636C246.787 427.148 246.665 426.544 246.665 425.824V420.273H248.364V425.619C248.364 426.214 248.529 426.687 248.859 427.04C249.188 427.392 249.616 427.568 250.143 427.568C250.461 427.568 250.777 427.489 251.092 427.33C251.41 427.17 251.673 426.93 251.881 426.608C252.094 426.286 252.198 425.877 252.194 425.381ZM260.255 420.273V421.636H255.488V420.273H260.255ZM256.766 418.182H258.465V426.438C258.465 426.767 258.514 427.015 258.613 427.182C258.711 427.345 258.838 427.456 258.994 427.517C259.153 427.574 259.325 427.602 259.511 427.602C259.647 427.602 259.766 427.593 259.869 427.574C259.971 427.555 260.05 427.54 260.107 427.528L260.414 428.932C260.316 428.97 260.175 429.008 259.994 429.045C259.812 429.087 259.585 429.11 259.312 429.114C258.865 429.121 258.448 429.042 258.062 428.875C257.675 428.708 257.363 428.451 257.124 428.102C256.886 427.754 256.766 427.316 256.766 426.79V418.182ZM265.802 429.176C264.942 429.176 264.201 428.992 263.58 428.625C262.963 428.254 262.486 427.733 262.148 427.062C261.815 426.388 261.648 425.598 261.648 424.693C261.648 423.799 261.815 423.011 262.148 422.33C262.486 421.648 262.955 421.116 263.558 420.733C264.164 420.35 264.872 420.159 265.683 420.159C266.175 420.159 266.652 420.241 267.114 420.403C267.576 420.566 267.991 420.822 268.359 421.17C268.726 421.519 269.016 421.972 269.228 422.528C269.44 423.081 269.546 423.754 269.546 424.545V425.148H262.609V423.875H267.881C267.881 423.428 267.79 423.032 267.609 422.688C267.427 422.339 267.171 422.064 266.842 421.864C266.516 421.663 266.133 421.562 265.694 421.562C265.217 421.562 264.8 421.68 264.444 421.915C264.092 422.146 263.819 422.449 263.626 422.824C263.436 423.195 263.342 423.598 263.342 424.034V425.028C263.342 425.612 263.444 426.108 263.648 426.517C263.857 426.926 264.147 427.239 264.518 427.455C264.889 427.667 265.323 427.773 265.819 427.773C266.141 427.773 266.434 427.727 266.7 427.636C266.965 427.542 267.194 427.402 267.387 427.216C267.58 427.03 267.728 426.801 267.83 426.528L269.438 426.818C269.309 427.292 269.078 427.706 268.745 428.062C268.415 428.415 268.001 428.689 267.501 428.886C267.004 429.08 266.438 429.176 265.802 429.176ZM277.971 422.403L276.431 422.676C276.367 422.479 276.264 422.292 276.124 422.114C275.988 421.936 275.802 421.79 275.567 421.676C275.333 421.562 275.039 421.506 274.687 421.506C274.206 421.506 273.804 421.614 273.482 421.83C273.16 422.042 272.999 422.316 272.999 422.653C272.999 422.945 273.107 423.18 273.323 423.358C273.539 423.536 273.888 423.682 274.369 423.795L275.755 424.114C276.558 424.299 277.156 424.585 277.55 424.972C277.944 425.358 278.141 425.86 278.141 426.477C278.141 427 277.99 427.466 277.687 427.875C277.388 428.28 276.969 428.598 276.431 428.83C275.897 429.061 275.278 429.176 274.573 429.176C273.596 429.176 272.799 428.968 272.181 428.551C271.564 428.131 271.185 427.534 271.045 426.761L272.687 426.511C272.789 426.939 272.999 427.263 273.317 427.483C273.636 427.699 274.05 427.807 274.562 427.807C275.119 427.807 275.564 427.691 275.897 427.46C276.23 427.225 276.397 426.939 276.397 426.602C276.397 426.33 276.295 426.1 276.09 425.915C275.889 425.729 275.581 425.589 275.164 425.494L273.687 425.17C272.872 424.985 272.27 424.689 271.88 424.284C271.494 423.879 271.3 423.366 271.3 422.744C271.3 422.229 271.444 421.778 271.732 421.392C272.02 421.006 272.418 420.705 272.925 420.489C273.433 420.269 274.014 420.159 274.67 420.159C275.613 420.159 276.355 420.364 276.897 420.773C277.439 421.178 277.797 421.722 277.971 422.403ZM282.151 417.364L282.004 425.653H280.43L280.282 417.364H282.151ZM281.219 429.108C280.905 429.108 280.636 428.998 280.413 428.778C280.189 428.555 280.079 428.286 280.083 427.972C280.079 427.661 280.189 427.396 280.413 427.176C280.636 426.953 280.905 426.841 281.219 426.841C281.526 426.841 281.791 426.953 282.015 427.176C282.238 427.396 282.352 427.661 282.356 427.972C282.352 428.18 282.297 428.371 282.191 428.545C282.089 428.716 281.952 428.852 281.782 428.955C281.612 429.057 281.424 429.108 281.219 429.108Z" fill="#6B6B6D"/>
<path d="M110.904 214.181C111.226 213.31 112.458 213.31 112.78 214.181L114.003 217.486C114.104 217.759 114.32 217.975 114.594 218.076L117.898 219.299C118.769 219.621 118.769 220.853 117.898 221.175L114.594 222.398C114.32 222.499 114.104 222.715 114.003 222.989L112.78 226.294C112.458 227.164 111.226 227.164 110.904 226.294L109.681 222.989C109.58 222.715 109.364 222.499 109.09 222.398L105.785 221.175C104.915 220.853 104.915 219.621 105.785 219.299L109.09 218.076C109.364 217.975 109.58 217.759 109.681 217.486L110.904 214.181Z" fill="#57F287"/>
<path d="M245.156 297.21C245.467 296.866 246.039 297.095 246.026 297.559L245.961 299.989C245.957 300.135 246.017 300.275 246.125 300.373L247.927 302.004C248.271 302.316 248.042 302.887 247.578 302.875L245.148 302.81C245.003 302.806 244.862 302.866 244.764 302.974L243.133 304.776C242.822 305.12 242.25 304.891 242.263 304.427L242.328 301.997C242.332 301.851 242.272 301.711 242.164 301.613L240.362 299.982C240.018 299.67 240.247 299.099 240.711 299.111L243.14 299.177C243.286 299.181 243.427 299.121 243.524 299.012L245.156 297.21Z" fill="#57F287"/>
<path d="M106.163 311.872C106.786 311.184 107.929 311.642 107.904 312.57L107.838 315.013C107.831 315.305 107.951 315.586 108.167 315.782L109.979 317.422C110.667 318.045 110.209 319.188 109.281 319.163L106.838 319.097C106.546 319.09 106.265 319.21 106.07 319.426L104.429 321.238C103.806 321.926 102.663 321.468 102.688 320.54L102.754 318.097C102.762 317.805 102.642 317.524 102.425 317.328L100.613 315.688C99.9246 315.065 100.383 313.922 101.311 313.947L103.754 314.013C104.046 314.02 104.327 313.9 104.523 313.684L106.163 311.872Z" fill="#EB459E"/>
<circle cx="184.866" cy="180.718" r="1.71821" fill="#EB459E"/>
<circle opacity="0.3" cx="262.186" cy="213.364" r="1.71821" fill="#ED4245"/>
<circle cx="57.7182" cy="288.966" r="1.71821" fill="#FFE447"/>
<circle opacity="0.2" cx="110.124" cy="258.038" r="1.71821" fill="#EB459E"/>
<circle cx="57.7182" cy="221.955" r="1.71821" fill="#EB459E"/>
<circle cx="304.282" cy="254.601" r="1.71821" fill="#EB459E"/>
<path d="M50.1472 59L37.6472 59M37.6472 59L43.2722 64.625M37.6472 59L43.2722 53.375" stroke="black" stroke-width="1.5" stroke-linecap="round" stroke-linejoin="round"/>
<rect x="273.897" y="39" width="40" height="40" rx="20" fill="white"/>
<path d="M289.497 60.5239C289.297 60.5491 289.097 60.5759 288.897 60.6044M289.497 60.5239C290.939 60.3431 292.407 60.25 293.897 60.25C295.387 60.25 296.856 60.3431 298.297 60.5239M289.497 60.5239L289.181 64M298.297 60.5239C298.498 60.5491 298.698 60.5759 298.897 60.6044M298.297 60.5239L298.613 64M298.613 64L298.804 66.1026C298.854 66.6516 298.422 67.125 297.871 67.125H289.924C289.373 67.125 288.94 66.6516 288.99 66.1026L289.181 64M298.613 64H299.522C300.558 64 301.397 63.1605 301.397 62.125V56.8797C301.397 55.979 300.757 55.2007 299.866 55.0674C299.338 54.9884 298.807 54.9197 298.272 54.8615M289.181 64H288.272C287.237 64 286.397 63.1605 286.397 62.125V56.8797C286.397 55.979 287.037 55.2007 287.928 55.0674C288.456 54.9884 288.988 54.9197 289.522 54.8615M298.272 54.8615C296.835 54.7052 295.376 54.625 293.897 54.625C292.419 54.625 290.959 54.7052 289.522 54.8615M298.272 54.8615V51.8125C298.272 51.2947 297.852 50.875 297.335 50.875H290.46C289.942 50.875 289.522 51.2947 289.522 51.8125V54.8615M298.897 57.75H298.903V57.7563H298.897V57.75ZM296.397 57.75H296.403V57.7563H296.397V57.75Z" stroke="black" stroke-width="1.5" stroke-linecap="round" stroke-linejoin="round"/>
</g>
<defs>
<clipPath id="clip0_36_534">
<rect x="16.8972" y="15" width="300.162" height="649.95" rx="40" fill="white"/>
</clipPath>
</defs>
</svg>
