<svg width="78" height="78" viewBox="0 0 78 78" fill="none" xmlns="http://www.w3.org/2000/svg">
<path d="M74.1586 34.1517L51.9986 14.1866V7.80878C51.9986 3.51395 48.0987 0 43.3321 0H8.66643C3.89989 0 0 3.51395 0 7.80878V54.5736C0 58.8685 3.89989 62.3824 8.66643 62.3824H17.3155L17.5777 63.9422C18.9231 71.956 26.2701 78 34.6679 78H78V44.8127C77.9978 38.0346 75.0859 34.958 74.1586 34.1517ZM43.3321 10.1221C42.9031 10.085 42.4698 10.0636 42.0322 10.0636C38.5548 10.0636 35.2897 11.2798 32.8458 13.4819C30.3932 15.6781 29.0369 18.6142 29.0325 21.7475C29.026 24.8925 30.378 27.8442 32.8371 30.0619L43.3321 39.5183V54.5736H28.1659V7.80878H43.3321V10.1221ZM8.66643 7.80878H15.1662V54.5736H8.66643V7.80878ZM69.3314 70.1912H34.6657C30.5167 70.1912 26.8551 67.0033 26.1444 62.7748L26.0794 62.3824H43.3321C48.0987 62.3824 51.9986 58.8685 51.9986 54.5736V47.3271L56.5918 51.4657L62.7211 45.9449L52.6182 36.8418L41.1655 26.5245L38.9642 24.5411C38.1453 23.8031 37.6968 22.8153 37.6989 21.7611C37.7011 20.7187 38.1474 19.7445 38.9642 19.0124C39.8807 18.1867 41.1829 17.8411 42.4395 17.9426C43.4253 18.0207 44.3829 18.3663 45.1001 19.0124L54.1652 27.1804L68.0661 39.7057L67.9101 39.6628L68.1463 39.8033C68.4301 40.1879 69.3314 41.654 69.3314 44.8127V70.1912Z" fill="#229A73"/>
</svg>
